<mxfile host="app.diagrams.net" agent="Mozilla/5.0 (Windows NT 10.0; Win64; x64) AppleWebKit/537.36 (KHTML, like Gecko) Chrome/134.0.0.0 Safari/537.36" version="26.1.0">
  <diagram name="Page-1" id="b_VZxqaIs9oPiN35Q_82">
    <mxGraphModel dx="1195" dy="648" grid="1" gridSize="10" guides="1" tooltips="1" connect="1" arrows="1" fold="1" page="1" pageScale="1" pageWidth="850" pageHeight="1100" math="0" shadow="0">
      <root>
        <mxCell id="0" />
        <mxCell id="1" parent="0" />
        <mxCell id="jaJX-XToqXQRxelylY_b-9" style="rounded=0;orthogonalLoop=1;jettySize=auto;html=1;exitX=0.5;exitY=0.5;exitDx=0;exitDy=0;exitPerimeter=0;endArrow=none;startFill=0;" edge="1" parent="1" source="jaJX-XToqXQRxelylY_b-1" target="jaJX-XToqXQRxelylY_b-6">
          <mxGeometry relative="1" as="geometry" />
        </mxCell>
        <mxCell id="jaJX-XToqXQRxelylY_b-11" style="rounded=0;orthogonalLoop=1;jettySize=auto;html=1;exitX=0.5;exitY=0.5;exitDx=0;exitDy=0;exitPerimeter=0;endArrow=none;startFill=0;entryX=0;entryY=0.5;entryDx=0;entryDy=0;" edge="1" parent="1" source="jaJX-XToqXQRxelylY_b-1" target="jaJX-XToqXQRxelylY_b-7">
          <mxGeometry relative="1" as="geometry">
            <mxPoint x="240" y="420" as="targetPoint" />
          </mxGeometry>
        </mxCell>
        <mxCell id="jaJX-XToqXQRxelylY_b-1" value="Student" style="shape=umlActor;verticalLabelPosition=bottom;verticalAlign=top;html=1;outlineConnect=0;" vertex="1" parent="1">
          <mxGeometry x="130" y="260" width="30" height="60" as="geometry" />
        </mxCell>
        <mxCell id="jaJX-XToqXQRxelylY_b-10" style="rounded=0;orthogonalLoop=1;jettySize=auto;html=1;exitX=0.5;exitY=0.5;exitDx=0;exitDy=0;exitPerimeter=0;entryX=0;entryY=0.5;entryDx=0;entryDy=0;endArrow=none;startFill=0;" edge="1" parent="1" source="jaJX-XToqXQRxelylY_b-2" target="jaJX-XToqXQRxelylY_b-7">
          <mxGeometry relative="1" as="geometry" />
        </mxCell>
        <mxCell id="jaJX-XToqXQRxelylY_b-2" value="Financial Staff" style="shape=umlActor;verticalLabelPosition=bottom;verticalAlign=top;html=1;outlineConnect=0;" vertex="1" parent="1">
          <mxGeometry x="130" y="360" width="30" height="60" as="geometry" />
        </mxCell>
        <mxCell id="jaJX-XToqXQRxelylY_b-12" style="rounded=0;orthogonalLoop=1;jettySize=auto;html=1;exitX=0.5;exitY=0.5;exitDx=0;exitDy=0;exitPerimeter=0;entryX=1;entryY=0.5;entryDx=0;entryDy=0;endArrow=none;startFill=0;" edge="1" parent="1" source="jaJX-XToqXQRxelylY_b-5" target="jaJX-XToqXQRxelylY_b-6">
          <mxGeometry relative="1" as="geometry" />
        </mxCell>
        <mxCell id="jaJX-XToqXQRxelylY_b-13" style="rounded=0;orthogonalLoop=1;jettySize=auto;html=1;exitX=0.5;exitY=0.5;exitDx=0;exitDy=0;exitPerimeter=0;entryX=1;entryY=0.5;entryDx=0;entryDy=0;endArrow=none;startFill=0;" edge="1" parent="1" source="jaJX-XToqXQRxelylY_b-5" target="jaJX-XToqXQRxelylY_b-8">
          <mxGeometry relative="1" as="geometry" />
        </mxCell>
        <mxCell id="jaJX-XToqXQRxelylY_b-5" value="Registration Staff" style="shape=umlActor;verticalLabelPosition=bottom;verticalAlign=top;html=1;outlineConnect=0;" vertex="1" parent="1">
          <mxGeometry x="520" y="300" width="30" height="60" as="geometry" />
        </mxCell>
        <mxCell id="jaJX-XToqXQRxelylY_b-6" value="Register Course" style="ellipse;whiteSpace=wrap;html=1;" vertex="1" parent="1">
          <mxGeometry x="240" y="250" width="110" height="30" as="geometry" />
        </mxCell>
        <mxCell id="jaJX-XToqXQRxelylY_b-7" value="Record Billing" style="ellipse;whiteSpace=wrap;html=1;" vertex="1" parent="1">
          <mxGeometry x="240" y="400" width="100" height="30" as="geometry" />
        </mxCell>
        <mxCell id="jaJX-XToqXQRxelylY_b-8" value="Checkout Course" style="ellipse;whiteSpace=wrap;html=1;" vertex="1" parent="1">
          <mxGeometry x="360" y="330" width="120" height="30" as="geometry" />
        </mxCell>
        <mxCell id="jaJX-XToqXQRxelylY_b-15" value="" style="whiteSpace=wrap;html=1;aspect=fixed;fillColor=none;" vertex="1" parent="1">
          <mxGeometry x="200" y="200" width="280" height="280" as="geometry" />
        </mxCell>
      </root>
    </mxGraphModel>
  </diagram>
</mxfile>
